<?xml version="1.0" encoding="utf-8"?>
<!-- Generator: Adobe Illustrator 24.1.0, SVG Export Plug-In . SVG Version: 6.00 Build 0)  -->
<svg version="1.1" id="Layer_1" xmlns="http://www.w3.org/2000/svg" xmlns:xlink="http://www.w3.org/1999/xlink" x="0px" y="0px"
	 viewBox="0 0 350 350" style="enable-background:new 0 0 350 350;" xml:space="preserve">
<style type="text/css">
	.st0{fill:#29235C;}
	.st1{fill:#2D2E83;}
	.st2{fill:#3868B0;}
	.st3{fill:#ED6D12;}
	.st4{fill:#F39200;}
	.st5{fill:#F9B233;}
	.st6{fill:#7B2170;}
	.st7{fill:#951B81;}
	.st8{fill:#B04291;}
	.st9{fill:#BE1622;}
	.st10{fill:#E62C2B;}
	.st11{fill:#EB5E59;}
	.st12{fill:#006633;}
	.st13{fill:#008D36;}
	.st14{fill:#3AAA35;}
	.st15{fill:#E6332A;}
	.st16{fill:#00A19A;}
	.st17{fill:#EE6F5B;}
	.st18{fill:#EA5642;}
	.st19{fill:#FFD25F;}
	.st20{fill:#FAB64D;}
	.st21{fill:#334B5E;}
	.st22{fill:#2B3B4E;}
	.st23{fill:#1D71B8;}
	.st24{fill:#4490CE;}
	.st25{fill:#6CC5CF;}
	.st26{fill:#7FB9E6;}
	.st27{fill:#1B588F;}
	.st28{fill:#5EC0C0;}
	.st29{fill:#771610;}
	.st30{fill:#CF1D17;}
	.st31{fill:#E9473D;}
	.st32{fill:#581110;}
	.st33{fill:#C09209;}
	.st34{fill:#FAB71F;}
	.st35{fill:#FFD156;}
	.st36{fill:#947E18;}
	.st37{fill:#662483;}
	.st38{fill:#BB5FA1;}
	.st39{fill:#472564;}
	.st40{fill:#89BF53;}
	.st41{fill:none;stroke:#010202;stroke-width:4;stroke-linecap:round;stroke-miterlimit:10;}
	.st42{fill:#3B3A3C;}
	.st43{fill:#E52C12;}
	.st44{fill:#DD1614;}
	.st45{fill:#F9F9F9;}
	.st46{fill:#E95228;}
	.st47{fill:#EF7857;}
	.st48{fill:#A1A7AF;}
	.st49{fill:#F59F4E;}
	.st50{fill:#FCC34F;}
	.st51{fill:#BF7328;}
	.st52{fill:#DFDFE1;}
	.st53{fill:#CFCDD2;}
	.st54{fill:#E52330;}
	.st55{fill:#F4971B;}
	.st56{fill:#57555B;}
	.st57{fill:#272729;}
	.st58{fill:#C4D9D8;}
	.st59{fill:#EDF7F8;}
	.st60{fill:#971914;}
	.st61{fill:#E55245;}
	.st62{fill:#51100F;}
	.st63{fill:#F6F6F6;}
	.st64{fill:#EDEDED;}
	.st65{fill:#E94E1B;}
	.st66{fill:#020203;}
	.st67{fill:#0A998C;}
	.st68{fill:#D8EDEB;}
	.st69{fill:none;stroke:#010202;stroke-width:9;stroke-linecap:round;stroke-miterlimit:10;}
	.st70{fill:none;stroke:#010202;stroke-width:5;stroke-linecap:round;stroke-miterlimit:10;}
	.st71{fill:#53B04A;}
	.st72{fill:#FFDB6D;}
	.st73{fill:#2CA860;}
	.st74{fill:#F9B86A;}
	.st75{fill:#C763A3;}
	.st76{fill:#D25198;}
	.st77{fill:#7055A0;}
	.st78{fill:#674897;}
	.st79{fill:#185067;}
	.st80{fill:#F9B03D;}
	.st81{fill:#3AB7B6;}
	.st82{fill:#6DC3BF;}
	.st83{fill:#DEE1E7;}
	.st84{fill:#FFFFFF;}
	.st85{fill:#BD2D47;}
	.st86{fill:#D72E47;}
	.st87{fill:#21272E;}
	.st88{fill:#59432D;}
	.st89{fill:#EEE5DE;}
	.st90{opacity:0.3;fill:#21272E;enable-background:new    ;}
	.st91{fill:#F3A2B6;}
	.st92{fill:#434342;}
	.st93{fill:#717171;}
	.st94{fill:#C3C2C2;}
	.st95{fill:#EAEAEA;}
	.st96{fill:#DB6E10;}
	.st97{fill:#FED68C;}
	.st98{fill:#099046;}
	.st99{fill:#64B97E;}
	.st100{fill:#F8AB14;}
	.st101{fill:#B02869;}
	.st102{fill:#E8368C;}
	.st103{fill:#751B47;}
	.st104{fill:#FFDA45;}
	.st105{fill:#F49723;}
	.st106{fill:#EDBF8C;}
	.st107{fill:#EDAA61;}
	.st108{fill:#ED9432;}
	.st109{fill:#EC673E;}
	.st110{fill:#B12869;}
</style>
<g id="bg_x5F_7">
	<rect x="0.4" y="0.2" class="st0" width="350.4" height="350.4"/>
	<circle class="st1" cx="177.4" cy="176.8" r="140.4"/>
	<circle class="st2" cx="177" cy="176.8" r="97.3"/>
</g>
<g id="bg_x5F_6">
	<rect x="0.4" y="0.2" class="st3" width="350.4" height="350.4"/>
	<circle class="st4" cx="177.4" cy="176.8" r="140.4"/>
	<circle class="st5" cx="177" cy="176.8" r="97.3"/>
</g>
<g id="bg_x5F_5">
	<rect x="0.2" y="0.2" class="st6" width="350.4" height="350.4"/>
	<circle class="st7" cx="177.2" cy="176.8" r="140.4"/>
	<circle class="st8" cx="176.8" cy="176.8" r="97.3"/>
</g>
<g id="bg_x5F_4">
	<rect x="0.2" y="0.2" class="st9" width="350.4" height="350.4"/>
	<circle class="st10" cx="177.2" cy="176.8" r="140.4"/>
	<circle class="st11" cx="176.8" cy="176.8" r="97.3"/>
</g>
<g id="bg_x5F_3">
	<rect x="0.2" y="0.2" class="st12" width="350.4" height="350.4"/>
	<circle class="st13" cx="177.2" cy="176.8" r="140.4"/>
	<circle class="st14" cx="176.8" cy="176.8" r="97.3"/>
</g>
<g id="bg_x5F_2">
	<rect x="0.2" y="0.2" class="st15" width="350.4" height="350.4"/>
	<rect x="156.3" y="0.2" class="st5" width="194.4" height="292"/>
	<rect x="0.6" y="65" class="st16" width="234.8" height="185.4"/>
	<rect x="48.1" y="229.4" class="st1" width="240.8" height="121.2"/>
</g>
<g id="bg_x5F_1">
	<g>
		<rect x="-1" y="-0.5" class="st17" width="178" height="350.4"/>
		<rect x="177" y="-0.5" class="st18" width="178.4" height="350.4"/>
		<polygon class="st19" points="177.2,349.9 -1,174.7 177.2,-0.5 355.4,174.7 		"/>
		<polygon class="st20" points="355.4,174.7 177.2,-0.5 177,-0.3 177,349.6 177.2,349.9 		"/>
		<polygon class="st21" points="-1,-0.5 -1,102.1 103.4,-0.5 		"/>
		<g>
			<polygon class="st22" points="355.4,-0.5 251,-0.5 355.4,102.1 			"/>
			<polygon class="st22" points="355.4,349.9 355.4,247.2 251,349.9 			"/>
		</g>
	</g>
	<polygon class="st21" points="-0.2,350.6 102.4,350.6 -0.2,247.9 	"/>
</g>
<g id="body_x5F_5">
	<path class="st23" d="M181.5,110.7c0,1.7-1.2,2.9-2.9,2.9l0,0c-1.7,0-2.9-1.2-2.9-2.9V93.2c0-1.7,1.2-2.9,2.9-2.9l0,0
		c1.7,0,2.9,1.2,2.9,2.9V110.7z"/>
	<path class="st24" d="M350.6,350.6c-2.3-17.5-19.8-35-40.8-35H41.5c-21,0-37.9,17.5-40.8,35H350.6z"/>
	<path class="st23" d="M350.6,350.6c-2.3-20.4-19.8-35-40.8-35H41.5"/>
	<circle class="st24" cx="123.4" cy="195" r="21.6"/>
	<path class="st23" d="M144.4,195c0,11.7-9.3,21.6-21.6,21.6c-11.7,0-21.6-9.3-21.6-21.6"/>
	<path class="st25" d="M117,203.7c0,0.6-0.6,1.2-1.2,1.2h-4.1c-0.6,0-1.2-0.6-1.2-1.2l0,0c0-0.6,0.6-1.2,1.2-1.2h4.1
		C116.4,203.1,117,203.1,117,203.7L117,203.7z"/>
	<circle class="st24" cx="227.8" cy="195" r="21.6"/>
	<path class="st23" d="M206.8,195c0,11.7,9.3,21.6,21.6,21.6c11.7,0,21.6-9.3,21.6-21.6"/>
	<path class="st26" d="M234.3,185.6c0,0.6,0.6,1.2,1.2,1.2h4.1c0.6,0,1.2-0.6,1.2-1.2l0,0c0-0.6-0.6-1.2-1.2-1.2h-4.1
		C234.8,184.5,234.3,185,234.3,185.6L234.3,185.6z"/>
	<path class="st25" d="M234.3,203.7c0,0.6,0.6,1.2,1.2,1.2h4.1c0.6,0,1.2-0.6,1.2-1.2l0,0c0-0.6-0.6-1.2-1.2-1.2h-4.1
		C234.8,203.1,234.3,203.1,234.3,203.7L234.3,203.7z"/>
	<path class="st26" d="M234.3,190.9c0,0.6,0.6,1.2,1.2,1.2h4.1c0.6,0,1.2-0.6,1.2-1.2l0,0c0-0.6-0.6-1.2-1.2-1.2h-4.1
		C234.8,189.7,234.3,190.3,234.3,190.9L234.3,190.9z"/>
	<path class="st24" d="M228.1,324.1c0,18.9-25.1,26.5-52.5,26.5l0,0c-27.4,0-52.5-7.2-52.5-26.5V149.9c0-18.9,25.1-34.5,52.5-34.5
		l0,0c27.4,0,52.5,15.3,52.5,34.5V324.1z"/>
	<path class="st23" d="M176.8,115.3L176.8,115.3c27.4,0,51.3,15.3,51.3,34.5v174.2c0,18.9-22.7,26.5-50.7,26.5l0,0"/>
	<g>
		<path class="st26" d="M117,185.6c0,0.6-0.6,1.2-1.2,1.2h-4.1c-0.6,0-1.2-0.6-1.2-1.2l0,0c0-0.6,0.6-1.2,1.2-1.2h4.1
			C116.4,184.5,117,185,117,185.6L117,185.6z"/>
		<path class="st26" d="M117,190.9c0,0.6-0.6,1.2-1.2,1.2h-4.1c-0.6,0-1.2-0.6-1.2-1.2l0,0c0-0.6,0.6-1.2,1.2-1.2h4.1
			C116.4,189.7,117,190.3,117,190.9L117,190.9z"/>
		
			<ellipse transform="matrix(0.7962 -0.605 0.605 0.7962 -50.1008 118.3984)" class="st26" cx="150.7" cy="133.6" rx="18.7" ry="6.4"/>
		<circle class="st26" cx="134.2" cy="154.4" r="2.3"/>
		<circle class="st26" cx="133.1" cy="162.6" r="1.7"/>
		<path class="st26" d="M134.8,249.5c0,1.2-1.7,2.3-2.9,2.3l0,0c-1.2,0-2.9-1.2-2.9-2.3v-65.9c0-1.2,1.7-2.3,2.9-2.3l0,0
			c1.2,0,2.9,1.2,2.9,2.3V249.5z"/>
		<circle class="st26" cx="175.6" cy="131.1" r="3.5"/>
	</g>
	<path class="st23" d="M255.6,315.6c0,19.2-4.1,35-23.3,35H119.1c-19.2,0-23.3-15.7-23.3-35l0,0c0-19.2,15.7-35,35.6-35h89.8
		C239.8,280.6,255.6,296.3,255.6,315.6L255.6,315.6z"/>
	<path class="st27" d="M255.6,315.6L255.6,315.6c0,19.2-4.1,35-23.3,35H119.1c-19.2,0-23.3-15.7-23.3-35l0,0"/>
	<path class="st25" d="M190.2,109.5c0,2.9-2.3,5.8-4.7,5.8h-14c-2.9,0-4.7-2.9-4.7-5.8l0,0c0-2.9,2.3-5.8,4.7-5.8h14
		C188.5,103.7,190.2,106.6,190.2,109.5L190.2,109.5z"/>
	<path class="st28" d="M172.7,103.7h12.8c2.9,0,4.7,2.9,4.7,5.2l0,0c0,2.9-1.7,4.7-4.1,4.7"/>
	<g>
		
			<ellipse transform="matrix(0.8094 -0.5872 0.5872 0.8094 -151.7579 124.9124)" class="st24" cx="116.6" cy="296.3" rx="14.6" ry="6.4"/>
		
			<ellipse transform="matrix(0.1602 -0.9871 0.9871 0.1602 -166.315 440.3714)" class="st24" cx="175.6" cy="317.9" rx="10.5" ry="10.5"/>
	</g>
</g>
<g id="body_x5F_4">
	<path class="st29" d="M181.3,110.4c0,1.8-1.2,2.9-2.9,2.9l0,0c-1.8,0-2.9-1.2-2.9-2.9V92.8c0-1.8,1.2-2.9,2.9-2.9l0,0
		c1.8,0,2.9,1.2,2.9,2.9V110.4z"/>
	<path class="st30" d="M350.6,350.6c-2.3-17.5-19.9-35-40.9-35H41.1c-21,0-38,17.5-40.9,35H350.6z"/>
	<path class="st29" d="M350.6,350.6c-2.3-20.4-19.9-35-40.9-35H41.1"/>
	<g>
		<circle class="st30" cx="123.1" cy="194.8" r="21.6"/>
		<path class="st29" d="M144.2,194.8c0,11.7-9.3,21.6-21.6,21.6c-11.7,0-21.6-9.3-21.6-21.6"/>
		<path class="st31" d="M116.7,185.4c0,0.6-0.6,1.2-1.2,1.2h-4.1c-0.6,0-1.2-0.6-1.2-1.2l0,0c0-0.6,0.6-1.2,1.2-1.2h4.1
			C116.1,184.2,116.7,184.8,116.7,185.4L116.7,185.4z"/>
		<path class="st25" d="M116.7,203.5c0,0.6-0.6,1.2-1.2,1.2h-4.1c-0.6,0-1.2-0.6-1.2-1.2l0,0c0-0.6,0.6-1.2,1.2-1.2h4.1
			C116.1,202.9,116.7,202.9,116.7,203.5L116.7,203.5z"/>
		<path class="st31" d="M116.7,190.7c0,0.6-0.6,1.2-1.2,1.2h-4.1c-0.6,0-1.2-0.6-1.2-1.2l0,0c0-0.6,0.6-1.2,1.2-1.2h4.1
			C116.1,189.5,116.7,190.1,116.7,190.7L116.7,190.7z"/>
	</g>
	<g>
		<circle class="st30" cx="227.7" cy="194.8" r="21.6"/>
		<path class="st29" d="M206.7,194.8c0,11.7,9.3,21.6,21.6,21.6c11.7,0,21.6-9.3,21.6-21.6"/>
		<path class="st31" d="M234.1,185.4c0,0.6,0.6,1.2,1.2,1.2h4.1c0.6,0,1.2-0.6,1.2-1.2l0,0c0-0.6-0.6-1.2-1.2-1.2h-4.1
			C234.7,184.2,234.1,184.8,234.1,185.4L234.1,185.4z"/>
		<path class="st25" d="M234.1,203.5c0,0.6,0.6,1.2,1.2,1.2h4.1c0.6,0,1.2-0.6,1.2-1.2l0,0c0-0.6-0.6-1.2-1.2-1.2h-4.1
			C234.7,202.9,234.1,202.9,234.1,203.5L234.1,203.5z"/>
		<path class="st31" d="M234.1,190.7c0,0.6,0.6,1.2,1.2,1.2h4.1c0.6,0,1.2-0.6,1.2-1.2l0,0c0-0.6-0.6-1.2-1.2-1.2h-4.1
			C234.7,189.5,234.1,190.1,234.1,190.7L234.1,190.7z"/>
	</g>
	<path class="st30" d="M228,324.1c0,18.9-25.1,26.5-52.6,26.5l0,0c-27.5,0-52.6-7.2-52.6-26.5V149.6c0-18.9,25.1-34.6,52.6-34.6l0,0
		c27.5,0,52.6,15.3,52.6,34.6V324.1z"/>
	<path class="st29" d="M176.6,115L176.6,115c27.5,0,51.4,15.3,51.4,34.6v174.5c0,18.9-22.8,26.5-50.8,26.5l0,0"/>
	
		<ellipse transform="matrix(0.7962 -0.605 0.605 0.7962 -49.9859 118.1888)" class="st31" cx="150.5" cy="133.3" rx="18.7" ry="6.4"/>
	<circle class="st31" cx="133.9" cy="154.2" r="2.3"/>
	<circle class="st31" cx="132.8" cy="162.3" r="1.8"/>
	<path class="st31" d="M134.5,249.4c0,1.2-1.8,2.3-2.9,2.3l0,0c-1.2,0-2.9-1.2-2.9-2.3v-66c0-1.2,1.8-2.3,2.9-2.3l0,0
		c1.2,0,2.9,1.2,2.9,2.3V249.4z"/>
	<circle class="st31" cx="175.4" cy="130.8" r="3.5"/>
	<path class="st29" d="M255.4,315.5c0,19.3-4.1,35-23.4,35H118.8c-19.3,0-23.4-15.8-23.4-35l0,0c0-19.3,15.8-35,35.6-35H221
		C239.7,280.5,255.4,296.3,255.4,315.5L255.4,315.5z"/>
	<path class="st32" d="M255.4,315.5L255.4,315.5c0,19.3-4.1,35-23.4,35H118.8c-19.3,0-23.4-15.8-23.4-35l0,0"/>
	<path class="st25" d="M190,109.2c0,2.9-2.3,5.8-4.7,5.8h-14c-2.9,0-4.7-2.9-4.7-5.8l0,0c0-2.9,2.3-5.8,4.7-5.8h14
		C188.3,103.4,190,106.3,190,109.2L190,109.2z"/>
	<path class="st28" d="M172.5,103.4h12.8c2.9,0,4.7,2.9,4.7,5.3l0,0c0,2.9-1.8,4.7-4.1,4.7"/>
	<g>
		
			<ellipse transform="matrix(0.8094 -0.5872 0.5872 0.8094 -151.774 124.7249)" class="st30" cx="116.3" cy="296.2" rx="14.6" ry="6.4"/>
		
			<ellipse transform="matrix(0.1602 -0.9871 0.9871 0.1602 -166.4606 440.1174)" class="st30" cx="175.4" cy="317.9" rx="10.5" ry="10.5"/>
	</g>
</g>
<g id="body_x5F_3">
	<path class="st33" d="M181.1,110.5c0,1.8-1.2,2.9-2.9,2.9l0,0c-1.8,0-2.9-1.2-2.9-2.9V93c0-1.8,1.2-2.9,2.9-2.9l0,0
		c1.8,0,2.9,1.2,2.9,2.9V110.5z"/>
	<path class="st34" d="M350.4,350.6c-2.3-17.5-19.8-35-40.9-35H41.1c-21,0-37.9,17.5-40.9,35H350.4z"/>
	<path class="st33" d="M350.4,350.6c-2.3-20.4-19.8-35-40.9-35H41.1"/>
	<circle class="st34" cx="123.1" cy="194.9" r="21.6"/>
	<path class="st33" d="M144.1,194.9c0,11.7-9.3,21.6-21.6,21.6c-11.7,0-21.6-9.3-21.6-21.6"/>
	<path class="st25" d="M116.6,203.6c0,0.6-0.6,1.2-1.2,1.2h-4.1c-0.6,0-1.2-0.6-1.2-1.2l0,0c0-0.6,0.6-1.2,1.2-1.2h4.1
		C116,203,116.6,203,116.6,203.6L116.6,203.6z"/>
	<circle class="st34" cx="227.5" cy="194.9" r="21.6"/>
	<path class="st33" d="M206.5,194.9c0,11.7,9.3,21.6,21.6,21.6c11.7,0,21.6-9.3,21.6-21.6"/>
	<path class="st35" d="M233.9,185.5c0,0.6,0.6,1.2,1.2,1.2h4.1c0.6,0,1.2-0.6,1.2-1.2l0,0c0-0.6-0.6-1.2-1.2-1.2h-4.1
		C234.5,184.4,233.9,185,233.9,185.5L233.9,185.5z"/>
	<path class="st25" d="M233.9,203.6c0,0.6,0.6,1.2,1.2,1.2h4.1c0.6,0,1.2-0.6,1.2-1.2l0,0c0-0.6-0.6-1.2-1.2-1.2h-4.1
		C234.5,203,233.9,203,233.9,203.6L233.9,203.6z"/>
	<path class="st35" d="M233.9,190.8c0,0.6,0.6,1.2,1.2,1.2h4.1c0.6,0,1.2-0.6,1.2-1.2l0,0c0-0.6-0.6-1.2-1.2-1.2h-4.1
		C234.5,189.6,233.9,190.2,233.9,190.8L233.9,190.8z"/>
	<path class="st34" d="M227.8,324.1c0,18.9-25.1,26.5-52.5,26.5l0,0c-27.4,0-52.5-7.2-52.5-26.5V149.8c0-18.9,25.1-34.5,52.5-34.5
		l0,0c27.4,0,52.5,15.3,52.5,34.5V324.1z"/>
	<path class="st33" d="M176.5,115.2L176.5,115.2c27.4,0,51.4,15.3,51.4,34.5v174.3c0,18.9-22.8,26.5-50.8,26.5l0,0"/>
	<g>
		<path class="st35" d="M116.6,185.5c0,0.6-0.6,1.2-1.2,1.2h-4.1c-0.6,0-1.2-0.6-1.2-1.2l0,0c0-0.6,0.6-1.2,1.2-1.2h4.1
			C116,184.4,116.6,185,116.6,185.5L116.6,185.5z"/>
		<path class="st35" d="M116.6,190.8c0,0.6-0.6,1.2-1.2,1.2h-4.1c-0.6,0-1.2-0.6-1.2-1.2l0,0c0-0.6,0.6-1.2,1.2-1.2h4.1
			C116,189.6,116.6,190.2,116.6,190.8L116.6,190.8z"/>
		
			<ellipse transform="matrix(0.7962 -0.605 0.605 0.7962 -50.1062 118.1542)" class="st35" cx="150.3" cy="133.5" rx="18.7" ry="6.4"/>
		<circle class="st35" cx="133.9" cy="154.3" r="2.3"/>
		<circle class="st35" cx="132.7" cy="162.5" r="1.8"/>
		<path class="st35" d="M134.4,249.4c0,1.2-1.8,2.3-2.9,2.3l0,0c-1.2,0-2.9-1.2-2.9-2.3v-65.9c0-1.2,1.8-2.3,2.9-2.3l0,0
			c1.2,0,2.9,1.2,2.9,2.3V249.4z"/>
		<circle class="st35" cx="175.3" cy="131" r="3.5"/>
	</g>
	<path class="st33" d="M255.2,315.6c0,19.3-4.1,35-23.3,35H118.7c-19.3,0-23.3-15.8-23.3-35l0,0c0-19.3,15.8-35,35.6-35h89.9
		C239.5,280.6,255.2,296.3,255.2,315.6L255.2,315.6z"/>
	<path class="st36" d="M255.2,315.6L255.2,315.6c0,19.3-4.1,35-23.3,35H118.7c-19.3,0-23.3-15.8-23.3-35l0,0"/>
	<path class="st25" d="M189.9,109.4c0,2.9-2.3,5.8-4.7,5.8h-14c-2.9,0-4.7-2.9-4.7-5.8l0,0c0-2.9,2.3-5.8,4.7-5.8h14
		C188.1,103.5,189.9,106.5,189.9,109.4L189.9,109.4z"/>
	<path class="st28" d="M172.4,103.5h12.8c2.9,0,4.7,2.9,4.7,5.3l0,0c0,2.9-1.8,4.7-4.1,4.7"/>
	<g>
		
			<ellipse transform="matrix(0.8094 -0.5872 0.5872 0.8094 -151.8141 124.682)" class="st34" cx="116.2" cy="296.2" rx="14.6" ry="6.4"/>
		
			<ellipse transform="matrix(0.1602 -0.9871 0.9871 0.1602 -166.5937 440.0094)" class="st34" cx="175.3" cy="317.9" rx="10.5" ry="10.5"/>
	</g>
</g>
<g id="body_x5F_2">
	<path class="st37" d="M181.2,110.3c0,1.8-1.2,2.9-2.9,2.9l0,0c-1.8,0-2.9-1.2-2.9-2.9V92.8c0-1.8,1.2-2.9,2.9-2.9l0,0
		c1.8,0,2.9,1.2,2.9,2.9V110.3z"/>
	<path class="st7" d="M350.6,350.6c-2.3-17.5-19.9-35.1-40.9-35.1H41c-21,0-38,17.5-40.9,35.1H350.6z"/>
	<path class="st37" d="M350.6,350.6c-2.3-20.4-19.9-35.1-40.9-35.1H41"/>
	<circle class="st7" cx="123.1" cy="194.7" r="21.6"/>
	<path class="st37" d="M144.1,194.7c0,11.7-9.3,21.6-21.6,21.6c-11.7,0-21.6-9.3-21.6-21.6"/>
	<path class="st25" d="M116.7,203.5c0,0.6-0.6,1.2-1.2,1.2h-4.1c-0.6,0-1.2-0.6-1.2-1.2l0,0c0-0.6,0.6-1.2,1.2-1.2h4.1
		C116.1,202.9,116.7,202.9,116.7,203.5L116.7,203.5z"/>
	<circle class="st7" cx="227.7" cy="194.7" r="21.6"/>
	<path class="st37" d="M206.6,194.7c0,11.7,9.3,21.6,21.6,21.6c11.7,0,21.6-9.3,21.6-21.6"/>
	<path class="st38" d="M234.1,185.4c0,0.6,0.6,1.2,1.2,1.2h4.1c0.6,0,1.2-0.6,1.2-1.2l0,0c0-0.6-0.6-1.2-1.2-1.2h-4.1
		C234.7,184.2,234.1,184.8,234.1,185.4L234.1,185.4z"/>
	<path class="st25" d="M234.1,203.5c0,0.6,0.6,1.2,1.2,1.2h4.1c0.6,0,1.2-0.6,1.2-1.2l0,0c0-0.6-0.6-1.2-1.2-1.2h-4.1
		C234.7,202.9,234.1,202.9,234.1,203.5L234.1,203.5z"/>
	<path class="st38" d="M234.1,190.6c0,0.6,0.6,1.2,1.2,1.2h4.1c0.6,0,1.2-0.6,1.2-1.2l0,0c0-0.6-0.6-1.2-1.2-1.2h-4.1
		C234.7,189.5,234.1,190.1,234.1,190.6L234.1,190.6z"/>
	<path class="st7" d="M228,324.1c0,18.9-25.1,26.5-52.6,26.5l0,0c-27.5,0-52.6-7.2-52.6-26.5V149.6c0-18.9,25.1-34.6,52.6-34.6l0,0
		c27.5,0,52.6,15.3,52.6,34.6V324.1z"/>
	<path class="st37" d="M176.5,115L176.5,115c27.5,0,51.4,15.3,51.4,34.6v174.5c0,18.9-22.8,26.5-50.8,26.5l0,0"/>
	<g>
		<path class="st38" d="M116.7,185.4c0,0.6-0.6,1.2-1.2,1.2h-4.1c-0.6,0-1.2-0.6-1.2-1.2l0,0c0-0.6,0.6-1.2,1.2-1.2h4.1
			C116.1,184.2,116.7,184.8,116.7,185.4L116.7,185.4z"/>
		<path class="st38" d="M116.7,190.6c0,0.6-0.6,1.2-1.2,1.2h-4.1c-0.6,0-1.2-0.6-1.2-1.2l0,0c0-0.6,0.6-1.2,1.2-1.2h4.1
			C116.1,189.5,116.7,190.1,116.7,190.6L116.7,190.6z"/>
		
			<ellipse transform="matrix(0.7962 -0.605 0.605 0.7962 -49.9657 118.1519)" class="st38" cx="150.4" cy="133.2" rx="18.7" ry="6.4"/>
		<circle class="st38" cx="133.9" cy="154.1" r="2.3"/>
		<circle class="st38" cx="132.7" cy="162.3" r="1.8"/>
		<path class="st38" d="M134.5,249.3c0,1.2-1.8,2.3-2.9,2.3l0,0c-1.2,0-2.9-1.2-2.9-2.3v-66c0-1.2,1.8-2.3,2.9-2.3l0,0
			c1.2,0,2.9,1.2,2.9,2.3V249.3z"/>
		<circle class="st38" cx="175.4" cy="130.8" r="3.5"/>
	</g>
	<path class="st37" d="M255.4,315.5c0,19.3-4.1,35.1-23.4,35.1H118.7c-19.3,0-23.4-15.8-23.4-35.1l0,0c0-19.3,15.8-35.1,35.6-35.1
		h90C239.6,280.5,255.4,296.3,255.4,315.5L255.4,315.5z"/>
	<path class="st39" d="M255.4,315.5L255.4,315.5c0,19.3-4.1,35.1-23.4,35.1H118.7c-19.3,0-23.4-15.8-23.4-35.1l0,0"/>
	<path class="st25" d="M190,109.1c0,2.9-2.3,5.8-4.7,5.8h-14c-2.9,0-4.7-2.9-4.7-5.8l0,0c0-2.9,2.3-5.8,4.7-5.8h14
		C188.2,103.3,190,106.2,190,109.1L190,109.1z"/>
	<path class="st28" d="M172.5,103.3h12.9c2.9,0,4.7,2.9,4.7,5.3l0,0c0,2.9-1.8,4.7-4.1,4.7"/>
	<g>
		
			<ellipse transform="matrix(0.8094 -0.5872 0.5872 0.8094 -151.7768 124.6919)" class="st7" cx="116.2" cy="296.2" rx="14.6" ry="6.4"/>
		
			<ellipse transform="matrix(0.1602 -0.9871 0.9871 0.1602 -166.4861 440.0728)" class="st7" cx="175.4" cy="317.9" rx="10.5" ry="10.5"/>
	</g>
</g>
<g id="body_x5F_1">
	<path class="st13" d="M181.2,110.4c0,1.8-1.2,2.9-2.9,2.9l0,0c-1.8,0-2.9-1.2-2.9-2.9V92.9c0-1.8,1.2-2.9,2.9-2.9l0,0
		c1.8,0,2.9,1.2,2.9,2.9V110.4z"/>
	<path class="st14" d="M350.6,350.6c-2.3-17.5-19.9-35-40.9-35H41.1c-21,0-38,17.5-40.9,35H350.6z"/>
	<path class="st13" d="M350.6,350.6c-2.3-20.4-19.9-35-40.9-35H41.1"/>
	<circle class="st14" cx="123.1" cy="194.8" r="21.6"/>
	<path class="st13" d="M144.1,194.8c0,11.7-9.3,21.6-21.6,21.6c-11.7,0-21.6-9.3-21.6-21.6"/>
	<path class="st25" d="M116.7,203.6c0,0.6-0.6,1.2-1.2,1.2h-4.1c-0.6,0-1.2-0.6-1.2-1.2l0,0c0-0.6,0.6-1.2,1.2-1.2h4.1
		C116.1,203,116.7,203,116.7,203.6L116.7,203.6z"/>
	<circle class="st14" cx="227.6" cy="194.8" r="21.6"/>
	<path class="st13" d="M206.6,194.8c0,11.7,9.3,21.6,21.6,21.6c11.7,0,21.6-9.3,21.6-21.6"/>
	<path class="st40" d="M234.1,185.4c0,0.6,0.6,1.2,1.2,1.2h4.1c0.6,0,1.2-0.6,1.2-1.2l0,0c0-0.6-0.6-1.2-1.2-1.2h-4.1
		C234.7,184.3,234.1,184.9,234.1,185.4L234.1,185.4z"/>
	<path class="st25" d="M234.1,203.6c0,0.6,0.6,1.2,1.2,1.2h4.1c0.6,0,1.2-0.6,1.2-1.2l0,0c0-0.6-0.6-1.2-1.2-1.2h-4.1
		C234.7,203,234.1,203,234.1,203.6L234.1,203.6z"/>
	<path class="st40" d="M234.1,190.7c0,0.6,0.6,1.2,1.2,1.2h4.1c0.6,0,1.2-0.6,1.2-1.2l0,0c0-0.6-0.6-1.2-1.2-1.2h-4.1
		C234.7,189.5,234.1,190.1,234.1,190.7L234.1,190.7z"/>
	<path class="st14" d="M227.9,324.1c0,18.9-25.1,26.5-52.6,26.5l0,0c-27.4,0-52.6-7.2-52.6-26.5V149.6c0-18.9,25.1-34.6,52.6-34.6
		l0,0c27.4,0,52.6,15.3,52.6,34.6V324.1z"/>
	<path class="st13" d="M176.6,115.1L176.6,115.1c27.4,0,51.4,15.3,51.4,34.6v174.4c0,18.9-22.8,26.5-50.8,26.5l0,0"/>
	<g>
		<path class="st40" d="M116.7,185.4c0,0.6-0.6,1.2-1.2,1.2h-4.1c-0.6,0-1.2-0.6-1.2-1.2l0,0c0-0.6,0.6-1.2,1.2-1.2h4.1
			C116.1,184.3,116.7,184.9,116.7,185.4L116.7,185.4z"/>
		<path class="st40" d="M116.7,190.7c0,0.6-0.6,1.2-1.2,1.2h-4.1c-0.6,0-1.2-0.6-1.2-1.2l0,0c0-0.6,0.6-1.2,1.2-1.2h4.1
			C116.1,189.5,116.7,190.1,116.7,190.7L116.7,190.7z"/>
		
			<ellipse transform="matrix(0.7962 -0.605 0.605 0.7962 -50.0168 118.1799)" class="st40" cx="150.4" cy="133.3" rx="18.7" ry="6.4"/>
		<circle class="st40" cx="133.9" cy="154.2" r="2.3"/>
		<circle class="st40" cx="132.8" cy="162.4" r="1.8"/>
		<path class="st40" d="M134.5,249.4c0,1.2-1.8,2.3-2.9,2.3l0,0c-1.2,0-2.9-1.2-2.9-2.3v-66c0-1.2,1.8-2.3,2.9-2.3l0,0
			c1.2,0,2.9,1.2,2.9,2.3V249.4z"/>
		<circle class="st40" cx="175.4" cy="130.9" r="3.5"/>
	</g>
	<path class="st13" d="M255.4,315.6c0,19.3-4.1,35-23.4,35H118.7c-19.3,0-23.4-15.8-23.4-35l0,0c0-19.3,15.8-35,35.6-35h89.9
		C239.6,280.5,255.4,296.3,255.4,315.6L255.4,315.6z"/>
	<path class="st12" d="M255.4,315.6L255.4,315.6c0,19.3-4.1,35-23.4,35H118.7c-19.3,0-23.4-15.8-23.4-35l0,0"/>
	<path class="st25" d="M190,109.2c0,2.9-2.3,5.8-4.7,5.8h-14c-2.9,0-4.7-2.9-4.7-5.8l0,0c0-2.9,2.3-5.8,4.7-5.8h14
		C188.2,103.4,190,106.3,190,109.2L190,109.2z"/>
	<path class="st28" d="M172.5,103.4h12.8c2.9,0,4.7,2.9,4.7,5.3l0,0c0,2.9-1.8,4.7-4.1,4.7"/>
	<g>
		
			<ellipse transform="matrix(0.8094 -0.5872 0.5872 0.8094 -151.7843 124.7139)" class="st14" cx="116.3" cy="296.2" rx="14.6" ry="6.4"/>
		
			<ellipse transform="matrix(0.1602 -0.9871 0.9871 0.1602 -166.4947 440.0897)" class="st14" cx="175.4" cy="317.9" rx="10.5" ry="10.5"/>
	</g>
</g>
<path id="mouth_x5F_7" class="st41" d="M140.8,216.8l13.4,12.5l11.3-12.5l11.6,12.5l9.3-12.5l12.8,12.5c3.8-4.1,7.5-8.3,11.3-12.4"
	/>
<path id="mouth_x5F_6" d="M142,216.3l35.1,20.4l32.3-20.4c-10.7,3-21.4,5.9-32.1,8.9C165.5,222.3,153.7,219.3,142,216.3z"/>
<g id="mouth_x5F_5">
	<path class="st42" d="M157.1,228.5c0,0,8.3-1.3,11.3-0.3c3,1,6.1,3,10.4,1.9c4.3-1,6.5-2.8,11.2-1.9s7.6,1.6,7.6,1.6
		s-4.1,6.8-9.9,8.6c-5.7,1.8-11.5,4.3-17.8,0.8C163.7,235.7,157.1,228.5,157.1,228.5z"/>
	<path class="st43" d="M191.4,229.5c-2.8,5.3-8.3,9-14.8,9c-6.3,0-11.9-3.8-14.8-9l-15.3-2.1c3.6,13.5,15.7,23.2,30.3,23.2
		c14.3,0,26.5-9.2,30.3-22.3L191.4,229.5z"/>
	<path class="st44" d="M202.5,228.9c-4.8,11.3-16,19-29.1,19c-6.8,0-13-2.1-18.1-5.6c5.6,5.3,13.2,8.5,21.6,8.5
		c14.3,0,26.5-9.2,30.3-22.3L202.5,228.9z"/>
	<g>
		<polygon class="st45" points="157.7,228.9 162.4,254.9 167,228.3 		"/>
		<polygon class="st45" points="186.8,228.9 191.5,254.9 196,229.1 		"/>
	</g>
	<path class="st46" d="M146.5,227.5c11.2-7.1,20.4-11.1,24.7-12.1c3.6-0.8,6.9-0.7,6.9-0.7c0,0,2.4,0.1,5,0.6
		c4.2,0.9,13.3,5.4,24.2,13.1c-2,1-5.2,2.1-9.3,2.1c-4.1,0.1-5-1.2-9.3-1.2c-5.5,0-5.8,2-11.1,2.1c-5,0.1-5.1-1.7-11.1-1.9
		c-4.7-0.2-5.7,0.9-9.9,0.7C152.1,230,148.7,228.6,146.5,227.5z"/>
	<path class="st47" d="M161.8,229.8c1-1.1-1.7-3.9-1.5-6.5c0.1-2.3,2.5-5,10.9-7.9c-3.1,0.9-6.5,2.2-10.2,3.8
		c-5.8,2.6-10.6,5.5-14.5,8.3c4.5,1.8,8.1,2.6,10,2.7c0.4,0,1.3,0,2.2,0C160.6,230.2,161.5,230.2,161.8,229.8z"/>
</g>
<g id="mouth_x5F_4">
	<path class="st48" d="M212.9,242.1c-0.5,0-0.9-0.2-1.3-0.5l-12.5-10.4c-0.5-0.4-0.7-1-0.7-1.6s0.3-1.2,0.7-1.6l12.5-10.4
		c0.9-0.7,2.2-0.6,2.9,0.3c0.7,0.9,0.6,2.2-0.3,2.9l-10.6,8.8l10.6,8.8c0.9,0.7,1,2,0.3,2.9C214.1,241.8,213.5,242.1,212.9,242.1z"
		/>
	<g>
		<path d="M187.9,237.9c-1.1,0-2.1-0.9-2.1-2.1v-6.2c0-1.1,0.9-2.1,2.1-2.1s2.1,0.9,2.1,2.1v6.2C190,237,189.1,237.9,187.9,237.9z"
			/>
		<path d="M200.4,227.5h-4.2v-4.2c0-1.1-0.9-2.1-2.1-2.1c-1.1,0-2.1,0.9-2.1,2.1v4.2h-8.3v-4.2c0-1.1-0.9-2.1-2.1-2.1
			s-2.1,0.9-2.1,2.1v4.2h-8.3v-4.2c0-1.1-0.9-2.1-2.1-2.1c-1.1,0-2.1,0.9-2.1,2.1v4.2h-8.3v-4.2c0-1.1-0.9-2.1-2.1-2.1
			c-1.1,0-2.1,0.9-2.1,2.1v4.2h-4.2c-1.1,0-2.1,0.9-2.1,2.1c0,1.1,0.9,2.1,2.1,2.1h10.4v4.2c0,1.1,0.9,2.1,2.1,2.1
			c1.1,0,2.1-0.9,2.1-2.1v-4.2h8.3v4.2c0,1.1,0.9,2.1,2.1,2.1s2.1-0.9,2.1-2.1v-4.2h22.9c1.1,0,2.1-0.9,2.1-2.1
			C202.5,228.5,201.6,227.5,200.4,227.5z"/>
		<path d="M200.4,246.1c-1.1,0-1.9-0.9-1.9-1.9v-14.6c0-1.1,0.9-1.9,1.9-1.9s1.9,0.9,1.9,1.9v14.6
			C202.4,245.3,201.5,246.1,200.4,246.1z"/>
	</g>
	<path class="st49" d="M192.7,249.8l6.2-6.2c0.8-0.8,2.1-0.8,2.9,0l6.2,6.2c0.4,0.4,0.6,0.9,0.6,1.5v22c0,1.1-0.9,2.1-2.1,2.1h-12.5
		c-1.1,0-2.1-0.9-2.1-2.1v-22C192.1,250.7,192.3,250.2,192.7,249.8z"/>
	<polygon class="st50" points="194.2,273.3 194.2,251.3 200.4,245 206.7,251.3 206.7,273.3 	"/>
	<g>
		<path class="st51" d="M200.4,271.1c-1.1,0-1.9-0.9-1.9-1.9V265c0-1.1,0.9-1.9,1.9-1.9s1.9,0.9,1.9,1.9v4.2
			C202.4,270.2,201.5,271.1,200.4,271.1z"/>
		<path class="st51" d="M200.4,258.6c-1.1,0-1.9-0.9-1.9-1.9v-4.2c0-1.1,0.9-1.9,1.9-1.9s1.9,0.9,1.9,1.9v4.2
			C202.4,257.7,201.5,258.6,200.4,258.6z"/>
	</g>
</g>
<g id="mouth_x5F_3">
	<path class="st52" d="M142.3,235.7V212c0-3.6,2.9-6.5,6.5-6.5h56c3.6,0,6.5,2.9,6.5,6.5v23.7c0,19-15.4,34.5-34.5,34.5
		S142.3,254.8,142.3,235.7z"/>
	<path class="st53" d="M204.9,205.5h-28v64.7c19,0,34.5-15.4,34.5-34.5V212C211.3,208.4,208.4,205.5,204.9,205.5z"/>
	<path class="st46" d="M199.8,225.7c-6.3,0-11.5-5.1-11.5-11.5c0,6.3-5.1,11.5-11.5,11.5c-6.3,0-11.5-5.1-11.5-11.5
		c0,6.3-5.1,11.5-11.5,11.5s-11.5-5.1-11.5-11.5v21.6c0,19,15.4,34.5,34.5,34.5s34.5-15.4,34.5-34.5v-21.6
		C211.3,220.5,206.2,225.7,199.8,225.7z"/>
	<path class="st54" d="M199.8,225.7c-6.3,0-11.5-5.1-11.5-11.5c0,6.3-5.1,11.5-11.5,11.5v44.6c19,0,34.5-15.4,34.5-34.5v-21.6
		C211.3,220.5,206.2,225.7,199.8,225.7z"/>
	<rect x="173.6" y="237.9" class="st55" width="6.5" height="12.9"/>
	<path class="st56" d="M211.3,214.2c0,6.3-5.1,11.5-11.5,11.5s-11.5-5.1-11.5-11.5c0,6.3-5.1,11.5-11.5,11.5
		c-6.3,0-11.5-5.1-11.5-11.5c0,6.3-5.1,11.5-11.5,11.5c-6.3,0-11.5-5.1-11.5-11.5v21.6c0,6.4,1.7,12.4,4.8,17.5
		c6.6-9.3,17.4-15.4,29.7-15.4c12.3,0,23.1,6.1,29.7,15.4c3-5.1,4.8-11.1,4.8-17.5V214.2z"/>
	<path class="st57" d="M199.8,225.7c-6.3,0-11.5-5.1-11.5-11.5c0,6.3-5.1,11.5-11.5,11.5h0v12.2h0c12.3,0,23.1,6.1,29.7,15.4
		c3-5.1,4.8-11.1,4.8-17.5v-21.6C211.3,220.5,206.2,225.7,199.8,225.7z"/>
</g>
<g id="mouth_x5F_2">
	<path class="st58" d="M208.6,237.6c0,9.6-3.5,17.4-12.6,17.4h-37.5c-9.6,0-12.6-7.8-12.6-17.4l0,0c0-9.6,7.8-17.4,17.4-17.4H192
		C201.2,220.2,208.6,228,208.6,237.6L208.6,237.6z"/>
	<path class="st59" d="M208.6,239.8c0,8.3-3.5,15.2-12.6,15.2h-37.5c-9.6,0-12.6-7-12.6-15.2l0,0c0-8.7,7.8-15.2,17.4-15.2H192
		C201.2,224.6,208.6,231.1,208.6,239.8L208.6,239.8z"/>
</g>
<g id="mouth_x5F_1">
	<path class="st60" d="M148.8,233.6c1,9.9,13.4,22.8,28.2,22.8c15.3,0,27.7-12.9,28.2-22.8H148.8z"/>
	<path class="st30" d="M185.9,218.3c-3.5,0-6.4,1.5-8.9,4c-2.5-2.5-5.4-4-8.9-4c-7.9,0-16.3,5.4-19.8,15.3h23.3h10.9h23.3
		C202.2,223.7,193.8,218.3,185.9,218.3z"/>
	<path class="st61" d="M165.6,220.7c0.5,1-1,3-4,4.9s-5.4,2.5-5.9,2c-0.5-1,1-3,4-4.9C162.2,220.7,165.1,220.3,165.6,220.7z"/>
	<path class="st30" d="M155.7,240.5c1-1,4,1,6.9,4c3,3,4.5,5.9,3.5,6.9c-1,1-4-1-6.9-4C156.2,244.5,154.7,241,155.7,240.5z"/>
	<path class="st62" d="M187.9,233.6c-1.5,0-4.5-3-7.4-3c-1.5,0-2.5,0.5-3.5,1c-1-0.5-2-1-3.5-1c-3,0-5.9,3-7.4,3l0,0
		c0.5,4.9,4.9,4.9,10.9,4.9C182.4,238.6,187.4,238.6,187.9,233.6L187.9,233.6z"/>
</g>
<g id="eyeball_x5F_6">
	<path class="st63" d="M220.5,176.1c0,11.6-9.4,20.9-20.9,20.9h-45.5c-11.6,0-20.9-9.4-20.9-20.9v-2.2c0-11.6,9.4-20.9,20.9-20.9
		h45.5c11.6,0,20.9,9.4,20.9,20.9V176.1z"/>
	<path class="st64" d="M219.8,176.8L219.8,176.8c0,11.6-9.4,20.2-20.9,20.2h-43.3c-11.6,0-20.9-8.7-20.9-20.2l0,0"/>
</g>
<g id="eyeball_x5F_5">
	<path class="st7" d="M220.1,176.7c0,11.5-9.4,20.9-20.9,20.9h-45.5c-11.5,0-20.9-9.4-20.9-20.9v-2.2c0-11.5,9.4-20.9,20.9-20.9
		h45.5c11.5,0,20.9,9.4,20.9,20.9V176.7z"/>
	<path class="st37" d="M219.4,177.4L219.4,177.4c0,11.5-9.4,20.2-20.9,20.2h-43.3c-11.5,0-20.9-8.7-20.9-20.2l0,0"/>
</g>
<g id="eyeball_x5F_4">
	<path class="st65" d="M219.6,176.6c0,11.5-9.3,20.8-20.8,20.8h-45.2c-11.5,0-20.8-9.3-20.8-20.8v-2.2c0-11.5,9.3-20.8,20.8-20.8
		h45.2c11.5,0,20.8,9.3,20.8,20.8V176.6z"/>
	<path class="st15" d="M218.9,177.3L218.9,177.3c0,11.5-9.3,20.1-20.8,20.1H155c-11.5,0-20.8-8.6-20.8-20.1l0,0"/>
</g>
<g id="eyeball_x5F_3">
	<path class="st5" d="M220,176.8c0,11.5-9.3,20.8-20.8,20.8H154c-11.5,0-20.8-9.3-20.8-20.8v-2.2c0-11.5,9.3-20.8,20.8-20.8h45.2
		c11.5,0,20.8,9.3,20.8,20.8V176.8z"/>
	<path class="st4" d="M219.3,177.5L219.3,177.5c0,11.5-9.3,20.1-20.8,20.1h-43.1c-11.5,0-20.8-8.6-20.8-20.1l0,0"/>
</g>
<g id="eyeball_x5F_2">
	<path class="st14" d="M220.1,176.1c0,11.5-9.4,20.9-20.9,20.9h-45.4c-11.5,0-20.9-9.4-20.9-20.9V174c0-11.5,9.4-20.9,20.9-20.9
		h45.4c11.5,0,20.9,9.4,20.9,20.9V176.1z"/>
	<path class="st13" d="M219.4,176.8L219.4,176.8c0,11.5-9.4,20.2-20.9,20.2h-43.3c-11.5,0-20.9-8.7-20.9-20.2l0,0"/>
</g>
<g id="eyeball_x5F_1">
	<path class="st25" d="M220.5,176.2c0,11.6-9.4,21-21,21h-45.7c-11.6,0-21-9.4-21-21V174c0-11.6,9.4-21,21-21h45.7
		c11.6,0,21,9.4,21,21V176.2z"/>
	<path class="st28" d="M219.8,176.9L219.8,176.9c0,11.6-9.4,20.3-21,20.3h-43.5c-11.6,0-21-8.7-21-20.3l0,0"/>
</g>
<g id="eye_x5F_8">
	<path class="st41" d="M153.1,160.8c-1,0.1-7.2,0.5-11.3,5.7c-0.3,0.4-5.2,6.8-2,13.9c2.2,5,7.5,8.3,13.4,8.3
		c0.5,0.1,6.4,1.1,10.8-3.3c4.5-4.4,3.2-10.3,3.1-10.7c-0.2-0.7-1-4-4.3-6.1c-4-2.6-8.3-1.4-8.9-1.2c-0.7,0.1-3.4,0.8-5.1,3.3
		c-1.6,2.4-1.9,5.8,0.1,8.3c1.7,2.2,4.4,2.7,5,2.8c1.9,0.2,3.7-0.7,4.7-2.1c1.1-1.8,0.9-4.4-0.8-5.6c-1.3-0.9-2.9-0.6-3.3-0.6"/>
	<path class="st41" d="M186.9,184.2c0.6,0.7,4.9,5.1,11.7,4.9c0.5,0,8.8-0.3,12.6-7.2c2.7-4.8,2-10.8-1.6-15.2
		c-0.2-0.4-3.2-5.5-9.4-6.1c-6.4-0.6-10.4,4.1-10.6,4.4c-0.5,0.6-2.6,3.2-2.3,7c0.4,4.6,4.1,7.1,4.6,7.4c0.5,0.4,2.8,2,5.9,1.7
		c2.9-0.3,5.9-2.2,6.7-5.3c0.7-2.7-0.6-5-0.9-5.5c-1.1-1.5-2.9-2.4-4.6-2.2c-2.1,0.3-4.1,2.1-4,4.2c0.1,1.6,1.3,2.6,1.6,2.8"/>
</g>
<g id="eye_x5F_7">
	<circle class="st63" cx="153.3" cy="176.5" r="10.7"/>
	<circle class="st63" cx="202.5" cy="176.9" r="10.7"/>
	<circle class="st66" cx="153.3" cy="169.7" r="3.7"/>
	<circle class="st66" cx="202.5" cy="169.7" r="3.7"/>
</g>
<g id="eye_x5F_6">
	<circle class="st66" cx="200.5" cy="176.6" r="7.1"/>
	<path class="st66" d="M157.2,178.6L157.2,178.6c2.4,0,4.6,1.2,5.8,3.1l6-3.7c-2.5-4-7-6.4-11.8-6.4c0,0,0,0,0,0
		c-4.9,0-9.3,2.3-11.8,6.4l6,3.7C152.5,179.8,154.7,178.6,157.2,178.6z"/>
</g>
<g id="eye_x5F_5">
	<path class="st66" d="M157.4,177.7L157.4,177.7c2.2,0,4.2,1.1,5.3,2.8l5.4-3.3c-2.3-3.7-6.3-5.7-10.7-5.7c0,0,0,0,0,0
		c-4.4,0-8.4,2.1-10.7,5.7l5.4,3.4C153.2,178.8,155.2,177.7,157.4,177.7z"/>
	<path class="st66" d="M196.6,177.7L196.6,177.7c2.2,0,4.2,1.1,5.3,2.8l5.4-3.3c-2.3-3.7-6.3-5.7-10.7-5.7c0,0,0,0,0,0
		c-4.4,0-8.4,2.1-10.7,5.7l5.4,3.4C192.4,178.8,194.4,177.7,196.6,177.7z"/>
</g>
<g id="eye_x5F_4">
	<path class="st66" d="M154.5,175l0-3c0.9,0,3.5-0.3,3.5,1.5C158.1,175.2,155.4,175,154.5,175z M158.8,178.2L158.8,178.2
		c0-2-3.2-1.7-4.2-1.7l0,3.3C155.5,179.9,158.8,180.1,158.8,178.2z M143.2,176c0-6.5,5.3-11.9,11.8-11.9s11.8,5.3,11.8,11.8
		s-5.3,11.8-11.8,11.8C148.5,187.8,143.2,182.5,143.2,176z M152,175.4c-0.1,0-0.1,0-0.2,0l0,4c0,0.2-0.1,0.5-0.6,0.5
		c0,0-1.1,0-1.1,0l-0.3,1.8l2,0c0.4,0,0.7,0,1.1,0l0,2.5l1.5,0l0-2.5c0.4,0,0.8,0,1.2,0l0,2.5l1.5,0l0-2.5c2.5-0.1,4.3-0.8,4.6-3.2
		c0.2-1.9-0.7-2.8-2.2-3.1c0.9-0.4,1.4-1.2,1.3-2.5l0,0c-0.2-1.8-1.7-2.4-3.7-2.6l0-2.5l-1.5,0v2.4c-0.4,0-0.8,0-1.2,0l0-2.4l-1.5,0
		l0,2.5c-0.3,0-0.7,0-1,0v0l-2.1,0v1.6c0,0,1.1,0,1.1,0c0.6,0,0.8,0.4,0.9,0.7l0,2.8C151.9,175.4,152,175.4,152,175.4z"/>
	<path class="st66" d="M198.1,174.8l0-3c0.9,0,3.5-0.3,3.5,1.5C201.7,175,199,174.8,198.1,174.8z M202.4,178L202.4,178
		c0-2-3.2-1.7-4.2-1.7l0,3.3C199.1,179.6,202.4,179.8,202.4,178z M186.8,175.8c0-6.5,5.3-11.9,11.8-11.9s11.8,5.3,11.8,11.8
		c0,6.5-5.3,11.8-11.8,11.8C192.1,187.5,186.8,182.3,186.8,175.8z M195.6,175.1c-0.1,0-0.1,0-0.2,0l0,4c0,0.2-0.1,0.5-0.6,0.5
		c0,0-1.1,0-1.1,0l-0.3,1.8l2,0c0.4,0,0.7,0,1.1,0l0,2.5l1.5,0l0-2.5c0.4,0,0.8,0,1.2,0l0,2.5l1.5,0l0-2.5c2.5-0.1,4.3-0.8,4.6-3.2
		c0.2-1.9-0.7-2.8-2.2-3.1c0.9-0.4,1.4-1.2,1.3-2.5l0,0c-0.2-1.8-1.7-2.4-3.7-2.6l0-2.5l-1.5,0v2.4c-0.4,0-0.8,0-1.2,0l0-2.4l-1.5,0
		l0,2.5c-0.3,0-0.7,0-1,0v0l-2.1,0v1.6c0,0,1.1,0,1.1,0c0.6,0,0.8,0.4,0.9,0.7l0,2.8C195.5,175.1,195.6,175.1,195.6,175.1z"/>
</g>
<g id="eye_x5F_3">
	<g>
		<path id="XMLID_810_" class="st15" d="M166.2,164.8c-1.8-1-3.8-1.2-5.7-0.6s-3.5,1.8-4.5,3.6l-0.3,0.5l-0.5-0.3
			c-1.8-1-3.8-1.2-5.7-0.6c-1.9,0.6-3.5,1.8-4.5,3.6c-1,1.8-1.2,3.8-0.6,5.7c0.6,1.9,1.8,3.5,3.6,4.5l12.7,7
			c0.3,0.1,0.6,0.2,0.9,0.1c0.3-0.1,0.5-0.3,0.7-0.6l7-12.7c1-1.8,1.2-3.8,0.6-5.7C169.2,167.4,168,165.8,166.2,164.8z M150.8,172.2
			c-1.3,0.4-2,1.7-1.7,3c0.2,0.6-0.2,1.2-0.8,1.4s-1.2-0.2-1.4-0.8c-0.7-2.5,0.7-5.1,3.2-5.8c0.6-0.2,1.2,0.2,1.4,0.8
			C151.7,171.4,151.4,172,150.8,172.2z"/>
	</g>
	<g>
		<path id="XMLID_1_" class="st15" d="M208.7,169.6c-1.1-1.7-2.8-2.8-4.8-3.2s-4,0-5.6,1.2l-0.5,0.3l-0.3-0.5
			c-1.1-1.7-2.8-2.8-4.8-3.2c-2-0.4-4,0-5.6,1.1c-1.7,1.1-2.8,2.8-3.2,4.8c-0.4,2,0,4,1.2,5.6l8.1,12c0.2,0.2,0.4,0.4,0.7,0.5
			c0.3,0.1,0.6,0,0.9-0.2l12-8.1c1.7-1.1,2.8-2.8,3.2-4.8C210.2,173.3,209.8,171.3,208.7,169.6z M191.6,169.1
			c-1.3-0.3-2.6,0.6-2.9,1.9c-0.1,0.6-0.7,1-1.3,0.9c-0.6-0.1-1-0.7-0.9-1.3c0.5-2.5,2.9-4.2,5.5-3.7c0.6,0.1,1,0.7,0.9,1.3
			C192.8,168.8,192.2,169.2,191.6,169.1z"/>
	</g>
</g>
<g id="eye_x5F_2">
	<circle class="st67" cx="154.6" cy="176.8" r="5.7"/>
	<circle class="st68" cx="153.2" cy="174.7" r="2.1"/>
	<circle class="st67" cx="199.8" cy="176.8" r="5.7"/>
	<circle class="st68" cx="197.7" cy="174.7" r="2.1"/>
</g>
<g id="eye_x5F_1">
	<circle class="st67" cx="176.8" cy="174.8" r="20.3"/>
	<path class="st68" d="M176.8,159.2c-1.2,1.7-5,7.5-4.7,15.7c0.3,7.6,4.1,12.7,5.4,14.4c1.2-1.5,5.2-7.1,5-15.2
		C182.4,166,178.1,160.7,176.8,159.2z"/>
</g>
<g id="eyebrow_x5F_6">
	<path id="eyebrow_x5F_3_8_" class="st69" d="M146.2,157.7c0.8-1,3-3.6,6.9-4.7c2.7-0.7,5-0.4,6.2-0.2"/>
	<path id="eyebrow_x5F_3_7_" class="st69" d="M194.8,148c0.8-0.1,5.7-0.8,9.9,2.7c2.9,2.4,3.9,5.4,4.2,6.6"/>
</g>
<g id="eyebrow_x5F_5">
	<path id="eyebrow_x5F_3_4_" class="st70" d="M149.5,149.4c2.1,0.7,5,1.8,8.3,3.4c2.6,1.3,4.8,2.6,6.4,3.7"/>
	<path id="eyebrow_x5F_3_3_" class="st70" d="M189.5,157.6c1.9-1.3,4.5-2.9,7.7-4.5c2.6-1.3,5-2.2,6.9-2.8"/>
</g>
<g id="eyebrow_x5F_4">
	<path id="eyebrow_x5F_3_1_" class="st70" d="M143.9,153.3c2.6-0.5,6.2-0.9,10.5-1c3.5-0.1,6.4,0.1,8.8,0.3"/>
	<path id="eyebrow_x5F_3_2_" class="st70" d="M190.8,153.5c2.7-0.2,6.3-0.3,10.6,0c3.5,0.3,6.4,0.7,8.7,1.2"/>
</g>
<path id="eyebrow_x5F_3" class="st70" d="M144.4,153.4c8.8-2.2,20.9-4.4,35.2-4c11.6,0.3,21.5,2,29.2,4"/>
<g id="eyebrow_x5F_2">
	<g>
		<path class="st66" d="M207.1,141.7c-8.1,1-5.3,6.1-5.3,6.1c-1.5-3.3,5.8-4.3,4.6,0.9c-1.2,5.3-13.5,0.5-13.5,0.5l0,0
			c-0.5-0.2-1-0.5-1.6-0.7c-5-1.9-10.2-1.7-14.4,0c-4.2-1.8-9.4-2-14.4,0c-0.5,0.2-1,0.4-1.5,0.7l0,0c0,0-12.4,4.7-13.5-0.5
			c-1.2-5.3,6.1-4.3,4.6-0.9c0,0,2.9-5.1-5.3-6.1c-8.1-1-12.1,7.3-6.6,15.2c4.8,7,18.3,5.1,24.5,3.4c0.1,0,0.2-0.1,0.4-0.1
			c0.7-0.2,1.3-0.4,1.8-0.6c4.6-1.8,8.1-4.9,10.1-8.6c2,3.7,5.5,6.9,10.1,8.6c0.1,0,0.2,0.1,0.3,0.1c0.3,0.1,0.7,0.2,1.2,0.4
			c0.3,0.1,0.5,0.2,0.8,0.2c6.2,1.7,19.6,3.4,24.3-3.5C219.2,149,215.2,140.7,207.1,141.7z"/>
	</g>
</g>
<g id="eyebrow_x5F_1">
	<path d="M144.2,153.2c0.8,0.8,0.8,2.5,0,3.3l0,0c-0.8,0.8-2.5,0.8-3.3,0l-8.3-8.3c-0.8-0.8-0.8-2.5,0-3.3l0,0
		c0.8-0.8,2.5-0.8,3.3,0L144.2,153.2z"/>
	<path d="M161.5,151.1c0,0.8-0.8,2.5-1.7,2.5l0,0c-1.7,0-2.5,0-2.5-1.7l-3.3-14c0-0.8,0-2.5,1.7-2.5l0,0c0.8,0,2.5,0,2.5,1.7
		L161.5,151.1z"/>
	<path d="M206.1,151.9c-0.8,0.8,0,1.7,0.8,2.5l0,0c0.8,0.8,1.7,1.7,2.5,0.8l8.3-8.3c0.8-0.8,0.8-2.5,0-3.3l0,0
		c-0.8-0.8-2.5-0.8-3.3,0L206.1,151.9z"/>
	<path d="M192.2,151.1c0,0.8,0.8,2.5,1.7,2.5l0,0c1.7,0,2.5,0,2.5-1.7l3.3-14c0-0.8,0-2.5-1.7-2.5l0,0c-0.8,0-2.5,0-2.5,1.7
		L192.2,151.1z"/>
	<path d="M174.8,151.1c0,1.7,0.8,2.5,2.5,2.5l0,0c1.7,0,2.5-0.8,2.5-2.5v-14c0-1.7-0.8-2.5-2.5-2.5l0,0c-1.7,0-2.5,0.8-2.5,2.5
		V151.1z"/>
</g>
<g id="faceaccessory_x5F_5">
	<path class="st66" d="M150.4,153.2c-7.5,0-14.1,3.9-17.9,9.7h-9.1c-1.2,0-2.3,1-2.3,2.3c0,1.2,1,2.3,2.3,2.3h6.8
		c-0.8,2.3-1.3,4.7-1.3,7.2c0,11.8,9.6,21.5,21.5,21.5c11.8,0,21.5-9.6,21.5-21.5C171.8,162.8,162.2,153.2,150.4,153.2z
		 M150.4,191.6c-9.3,0-16.9-7.6-16.9-16.9s7.6-16.9,16.9-16.9c9.3,0,16.9,7.6,16.9,16.9S159.7,191.6,150.4,191.6z"/>
	<path class="st66" d="M229.1,162.9h-10.2c-1.1-1.7-2.4-3.2-3.9-4.5c-3.9-3.4-8.9-5.2-14-5.2c-7.7,0-14.4,4.1-18.2,10.1
		c-1.6-2.1-4.2-3.5-7.1-3.5c-1.5,0-3,0.4-4.3,1.1c-1.1,0.6-1.5,2-0.9,3.1c0.6,1.1,2,1.5,3.1,0.9c0.7-0.4,1.4-0.5,2.1-0.5
		c2.5,0,4.5,2,4.5,4.5c0,0.2,0,0.3,0,0.4c-0.4,1.7-0.7,3.5-0.7,5.3c0,11.8,9.6,21.5,21.5,21.5c8.9,0,16.9-5.6,20.1-13.9
		c0.4-1.2-0.1-2.5-1.3-2.9c-1.2-0.4-2.5,0.1-2.9,1.3c-2.5,6.6-8.8,11-15.9,11c-9.3,0-16.9-7.6-16.9-16.9s7.6-16.9,16.9-16.9
		c8.4,0,15.4,6,16.7,14.3c0.2,1.2,1.3,2.1,2.6,1.9c1.2-0.2,2.1-1.3,1.9-2.6c-0.2-1.3-0.5-2.6-1-3.9h7.9c1.2,0,2.3-1,2.3-2.3
		C231.3,163.9,230.3,162.9,229.1,162.9z"/>
</g>
<g id="faceaccessory_x5F_4">
	<path class="st71" d="M213.6,108.2c-4.9,1.5-9.5,3.8-13.6,6.9c0.1,4.3-0.4,8.7-1.6,13c-1.3,4.6-3.3,8.9-5.9,12.7
		c1.5,2,2.6,4.3,3.2,6.7c4.3-2.9,8.2-6.5,11.4-11c5.9-8.2,8.5-17.7,8.2-27.1C215.3,108.6,214.4,108,213.6,108.2z"/>
	<path class="st72" d="M194.8,99.3c-3.1,2.3-5.9,5-8.3,8.1c0.5,2.7,0.8,5.4,0.8,8.3c0,6.6-1.5,12.9-4.1,18.5c3.7,1.3,7,3.6,9.3,6.7
		c2.6-3.8,4.6-8,5.9-12.7c2.7-9.7,1.9-19.6-1.6-28.3C196.5,99,195.5,98.8,194.8,99.3z"/>
	<path class="st71" d="M177.2,133c2.1,0,4.2,0.4,6.1,1c2.6-5.6,4.1-11.9,4.1-18.5c0-10.1-3.4-19.4-9.1-26.8c-0.5-0.7-1.5-0.7-2.1,0
		c-5.7,7.4-9.1,16.7-9.1,26.8c0,6.6,1.5,12.9,4.1,18.5C173,133.4,175.1,133,177.2,133z"/>
	<path class="st72" d="M171.1,134c-2.6-5.6-4.1-11.9-4.1-18.5c0-2.8,0.3-5.6,0.8-8.3c-2.4-3.1-5.2-5.8-8.3-8.1
		c-0.7-0.5-1.7-0.2-2,0.6c-3.5,8.7-4.3,18.5-1.6,28.3c1.3,4.6,3.3,8.9,5.9,12.7C164.1,137.7,167.4,135.3,171.1,134z"/>
	<path class="st71" d="M161.8,140.8c-2.6-3.8-4.6-8-5.9-12.7c-1.2-4.3-1.7-8.7-1.6-13c-4.1-3.1-8.8-5.4-13.6-6.9
		c-0.8-0.2-1.6,0.4-1.7,1.2c-0.3,9.4,2.3,18.9,8.2,27.1c3.2,4.5,7.1,8.1,11.4,11C159.3,145,160.4,142.7,161.8,140.8z"/>
	<path class="st73" d="M198.7,127c-0.1,0.4-0.2,0.7-0.3,1.1c-1.3,4.6-3.3,8.9-5.9,12.7c1.5,2,2.6,4.3,3.2,6.7
		c4.3-2.8,8.1-6.5,11.3-10.9C204.9,132.9,202,129.6,198.7,127z"/>
	<path class="st74" d="M192.5,140.8c2.6-3.8,4.6-8,5.9-12.7c0.1-0.4,0.2-0.7,0.3-1.1c-3.4-2.7-7.4-4.8-11.7-6
		c-0.6,4.6-1.9,9-3.7,13.1C187,135.3,190.2,137.7,192.5,140.8z"/>
	<path class="st73" d="M187,120.9c-3.1-0.9-6.4-1.4-9.8-1.4c-3.4,0-6.7,0.5-9.8,1.4c0.6,4.6,1.8,9,3.7,13.1c1.9-0.6,4-1,6.1-1
		c2.1,0,4.2,0.4,6.1,1C185.2,130,186.4,125.6,187,120.9z"/>
	<path class="st74" d="M156,128.1c1.3,4.6,3.3,8.9,5.9,12.7c2.3-3.1,5.5-5.5,9.3-6.7c-1.9-4.1-3.2-8.5-3.7-13.1
		c-4.3,1.3-8.2,3.3-11.7,6C155.8,127.4,155.9,127.7,156,128.1z"/>
	<path class="st73" d="M158.6,147.5c0.6-2.5,1.7-4.7,3.2-6.7c-2.6-3.8-4.6-8-5.9-12.7c-0.1-0.4-0.2-0.7-0.3-1.1
		c-3.3,2.6-6.2,5.9-8.4,9.6C150.5,141,154.4,144.7,158.6,147.5z"/>
	<path class="st75" d="M159.8,164.4l-1.7-11.3c0-0.5-0.1-1-0.1-1.5c0-10.6,8.6-19.1,19.1-19.1s19.1,8.6,19.1,19.1c0,0.5,0,1-0.1,1.5
		l-1.5,12.1"/>
	<path class="st76" d="M195.1,162.4l1.2-9.3c0-0.5,0.1-1,0.1-1.5c0-0.5,0-1-0.1-1.5c-1.5-0.2-3-0.3-4.8-0.1c-2.5,0.3-5.7,1-9.5,3.1
		c-3,1.7-6.6,1.7-9.6,0c-3.7-2.1-7-2.9-9.5-3.1c-1.8-0.2-3.3-0.1-4.7,0.1c0,0.5-0.1,1-0.1,1.5c0,0.5,0,1,0.1,1.5l1.4,9.1
		c1.8,0.5,3.6,1.3,5.2,2.3l25,0.6C191.3,163.9,193.2,163,195.1,162.4z"/>
	<circle class="st72" cx="177.2" cy="151.6" r="9.8"/>
	<path class="st74" d="M187,151.6c0-0.2,0-0.5,0-0.7c-1.5,0.5-3.2,1.2-5,2.2c-3,1.7-6.6,1.7-9.6,0c-1.8-1-3.4-1.7-4.9-2.2
		c0,0.2,0,0.4,0,0.7c0,5.4,4.4,9.8,9.8,9.8C182.6,161.4,187,157,187,151.6z"/>
	<path class="st77" d="M236.7,156.1c0.1-2.6-2.9-4-4.9-2.4c-2.3,1.8-5.2,3.6-8.8,4.7c-4.3,1.3-7.9,1.1-13.3,0.8
		c-10.3-0.6-12.4-2.8-18.4-2.1c-2.5,0.3-5.7,1-9.5,3.1c-3,1.7-6.6,1.7-9.6,0c-3.7-2.1-7-2.9-9.5-3.1c-6-0.6-8.1,1.6-18.4,2.1
		c-5.4,0.3-9,0.5-13.3-0.8c-3.6-1.1-6.5-2.9-8.8-4.7c-2-1.6-5-0.2-4.9,2.4c0,0.5,0.1,1,0.1,1.6c0.5,3.6,0.7,15.4,9.5,25.7
		c2.5,3,8.4,9.9,18.1,11.8c11.6,2.3,23.8-3.2,26-5.2c0.3-0.3,1.9-1.8,3.9-2.1c0.3,0,3.7,0,3.9,0c2,0.2,3.5,1.8,3.8,2.1
		c2.2,2,14.4,7.5,26,5.2c9.7-1.9,15.6-8.8,18.1-11.8c8.8-10.3,9-22.1,9.5-25.7C236.6,157.1,236.7,156.6,236.7,156.1z M166.2,179.5
		c-8.6,5.9-20.4,3.6-26.2-5l0,0l3.9-2.6c8.6-5.9,20.4-3.6,26.2,5l0,0L166.2,179.5z M215.3,174.5c-5.9,8.6-17.6,10.9-26.2,5l-3.9-2.6
		l0,0c5.9-8.6,17.6-10.9,26.2-5L215.3,174.5L215.3,174.5z"/>
	<g>
		<path class="st78" d="M231.8,153.7c-2.3,1.8-5.2,3.6-8.8,4.7c-0.7,0.2-1.5,0.4-2.2,0.5c-0.5,4.6-1.4,15.2-9.3,24.4
			c-2.4,2.8-7.8,9.1-16.6,11.4c4.3,0.9,9.2,1.3,14,0.4c9.7-1.9,15.6-8.8,18.1-11.8c8.8-10.3,9-22.1,9.5-25.7c0.1-0.5,0.1-1,0.1-1.6
			C236.8,153.5,233.8,152,231.8,153.7z"/>
		<path class="st78" d="M167.4,189.9c-0.3-0.3-1.9-1.8-3.8-2.1c-0.3,0-3.7,0-3.9,0c-2,0.2-3.6,1.8-3.9,2.1c-1.3,1.2-6,3.5-12,4.8
			c0.5,0.1,1.1,0.3,1.6,0.4c9.6,1.9,19.6-1.6,24-3.9C168.4,190.7,167.8,190.2,167.4,189.9z"/>
	</g>
	<circle class="st77" cx="177.2" cy="151.6" r="2"/>
	<g>
		<circle class="st72" cx="177.1" cy="171" r="2"/>
		<circle class="st72" cx="169.6" cy="167.2" r="2"/>
		<circle class="st72" cx="161.8" cy="163.5" r="2"/>
		<circle class="st72" cx="153.8" cy="163.2" r="2"/>
		<circle class="st72" cx="146.4" cy="164.4" r="2"/>
		<circle class="st72" cx="139" cy="166.4" r="2"/>
		<circle class="st72" cx="185.3" cy="167.2" r="2"/>
		<circle class="st72" cx="193.1" cy="163.5" r="2"/>
		<circle class="st72" cx="201.2" cy="163.2" r="2"/>
		<circle class="st72" cx="208.6" cy="164.4" r="2"/>
		<circle class="st72" cx="215.9" cy="166.4" r="2"/>
	</g>
</g>
<g id="faceaccessory_x5F_3">
	<path class="st79" d="M235.4,155c-0.8-0.7-1.9-1-2.9-0.8l-14.3,2.2l-39.8-2.2c-0.1,0-0.3,0-0.4,0l-39.8,2.2l-14.3-2.2
		c-1.1-0.2-2.1,0.1-2.9,0.8c-0.8,0.7-1.3,1.7-1.3,2.8c0,9.8,3.7,19.3,10.3,26.5c6.6,7.2,15.6,11.7,25.3,12.5
		c2.2,0.2,4.4,0.7,6.7,1.6l14.9,5.5c0.4,0.2,0.8,0.2,1.3,0.2c0.4,0,0.9-0.1,1.3-0.2l14.9-5.5c2.3-0.8,4.5-1.4,6.7-1.6
		c9.7-0.9,18.7-5.3,25.3-12.5c6.7-7.2,10.3-16.7,10.3-26.5C236.7,156.7,236.2,155.7,235.4,155z"/>
	<path class="st80" d="M178,154.1l-39.8,2.2l-14.3-2.2c-1.1-0.2-2.1,0.1-2.9,0.8c-0.8,0.7-1.3,1.7-1.3,2.8c0,9.8,3.7,19.3,10.3,26.5
		c6.6,7.2,15.6,11.7,25.3,12.5c2.2,0.2,4.4,0.7,6.7,1.6l14.9,5.5c0.4,0.2,0.8,0.2,1.3,0.2v-50C178.1,154.1,178.1,154.1,178,154.1z"
		/>
	<path class="st81" d="M152.9,139.7c-1.4,0.2-2.6,1.2-3.1,2.6c-2.1,7-0.6,14.5,4.1,20.1c4.1,4.9,10.2,7.7,16.5,7.7
		c0.9,0,1.7-0.1,2.6-0.2c1.4-0.2,2.6-1.2,3.1-2.6c2.1-7,0.6-14.5-4.1-20.1C167.3,141.7,160.2,138.9,152.9,139.7z"/>
	<g>
		<path class="st82" d="M152.9,139.7c-1.4,0.2-2.6,1.2-3.1,2.6c-2.1,7-0.6,14.5,4.1,20.1c2.4,2.9,5.6,5.1,9,6.4l0-27.9
			C159.8,139.7,156.4,139.3,152.9,139.7z"/>
		<path class="st82" d="M203.5,139.7c1.4,0.2,2.6,1.2,3.1,2.6c2.1,7,0.6,14.5-4.1,20.1c-4.1,4.9-10.2,7.7-16.5,7.7
			c-0.9,0-1.7-0.1-2.6-0.2c-1.4-0.2-2.6-1.2-3.1-2.6c-2.1-7-0.6-14.5,4.1-20.1C189.1,141.7,196.2,138.9,203.5,139.7z"/>
	</g>
	<path class="st81" d="M203.5,139.7c1.4,0.2,2.6,1.2,3.1,2.6c2.1,7,0.6,14.5-4.1,20.1c-2.4,2.9-5.6,5.1-9,6.4l0-27.9
		C196.6,139.7,200,139.3,203.5,139.7z"/>
	<path class="st83" d="M161,172c-4.5-2.7-10.2-3.1-17.1-1.2c-1.1,0.3-2,1.1-2.4,2.2c-0.4,1.1-0.3,2.3,0.3,3.3
		c0.2,0.4,6,9.1,22.5,9.1c1.1,0,2.2-0.5,2.9-1.4c0.7-0.9,0.9-2,0.7-3.1C167.7,180.3,166.3,175.2,161,172z"/>
	<path class="st84" d="M154.6,169.8c-3.2-0.4-6.8-0.1-10.7,1c-1.1,0.3-2,1.1-2.4,2.2c-0.4,1.1-0.3,2.3,0.3,3.3
		c0.2,0.3,3.7,5.5,12.8,7.9L154.6,169.8z"/>
	<path class="st85" d="M180.2,125.2c-1.2-0.8-2.8-0.8-4,0c-6.1,4-9.8,10.8-9.8,18.1s3.7,14,9.8,18.1c0.6,0.4,1.3,0.6,2,0.6
		s1.4-0.2,2-0.6c6.1-4,9.8-10.8,9.8-18.1S186.3,129.2,180.2,125.2z"/>
	<path class="st86" d="M178.2,124.6c-0.7,0-1.4,0.2-2,0.6c-6.1,4-9.8,10.8-9.8,18.1s3.7,14,9.8,18.1c0.6,0.4,1.3,0.6,2,0.6V124.6z"
		/>
	<path class="st84" d="M195.4,172c4.5-2.7,10.2-3.1,17.1-1.2c1.1,0.3,2,1.1,2.4,2.2c0.4,1.1,0.3,2.3-0.3,3.3
		c-0.2,0.4-6,9.1-22.5,9.1c-1.1,0-2.2-0.5-2.9-1.4c-0.7-0.9-0.9-2-0.7-3.1C188.7,180.3,190.1,175.2,195.4,172z"/>
	<path class="st83" d="M201.9,169.8c3.2-0.4,6.8-0.1,10.7,1c1.1,0.3,2,1.1,2.4,2.2c0.4,1.1,0.3,2.3-0.3,3.3
		c-0.2,0.3-3.7,5.5-12.8,7.9L201.9,169.8z"/>
</g>
<g id="faceaccessory_x5F_2">
	<path class="st87" d="M190.2,157.8v22c0,10.5,8.6,19.1,19.1,19.1h8.9c10.5,0,19.1-8.6,19.1-19.1v-22H190.2L190.2,157.8z"/>
	<g>
		<path class="st88" d="M195.6,204.3h-37.1c-11.4,0-20.7,9.2-20.7,20.7l0,0c0,4.1,3.1,7.6,7.1,8c4.6,0.4,8.5-3.2,8.5-7.8
			c0,4.3,3.5,7.8,7.8,7.8c4.3,0,7.8-3.5,7.8-7.8c0,4.3,3.5,7.8,7.8,7.8c4.3,0,7.8-3.5,7.8-7.8c0,4.3,3.5,7.8,7.8,7.8
			c4.3,0,7.8-3.5,7.8-7.8c0,4.4,3.7,8,8.1,7.8c4.2-0.2,7.6-3.8,7.6-8l0,0C216.2,213.5,207,204.3,195.6,204.3z"/>
		<path class="st88" d="M229.4,140.3c-4.3,0-7.8,3.5-7.8,7.8c0-4.3-3.5-7.8-7.8-7.8c-4.3,0-7.8,3.5-7.8,7.8c0-4.3-3.5-7.8-7.8-7.8
			c-4.3,0-7.8,3.5-7.8,7.8v15.5h15.7h15.7h15.7v-15.5C237.3,143.8,233.8,140.3,229.4,140.3z"/>
	</g>
	<path class="st89" d="M209.3,190.2c-5.7,0-10.4-4.7-10.4-10.4v-7.4h29.7v7.4c0,5.7-4.7,10.4-10.4,10.4L209.3,190.2L209.3,190.2z"/>
	<path class="st87" d="M163.8,157.8v22c0,10.5-8.6,19.1-19.1,19.1h-8.9c-10.5,0-19.1-8.6-19.1-19.1v-22H163.8z"/>
	<path class="st88" d="M124.6,140.3c4.3,0,7.8,3.5,7.8,7.8c0-4.3,3.5-7.8,7.8-7.8s7.8,3.5,7.8,7.8c0-4.3,3.5-7.8,7.8-7.8
		c4.3,0,7.8,3.5,7.8,7.8v15.5h-15.7h-15.7h-15.7v-15.5C116.7,143.8,120.2,140.3,124.6,140.3z"/>
	<path class="st89" d="M144.7,190.2c5.7,0,10.4-4.7,10.4-10.4v-7.4h-29.7v7.4c0,5.7,4.7,10.4,10.4,10.4L144.7,190.2L144.7,190.2z"/>
	<g>
		<path class="st90" d="M195.6,204.3h-37.1c-1.3,0-2.6,0.1-3.9,0.4c0.9,2.4,2.2,4.6,3.8,6.6c4.4,5.5,10.9,8.8,17.8,9
			c0.3,0,0.6,0,0.8,0c0.3,0,0.6,0,0.8,0c6.9-0.2,13.4-3.5,17.8-9c1.6-2,2.9-4.3,3.8-6.6C198.2,204.4,196.9,204.3,195.6,204.3z"/>
		<path class="st90" d="M237.3,148.1c0-4.3-3.5-7.8-7.8-7.8c-4.3,0-7.8,3.5-7.8,7.8c0-4.3-3.5-7.8-7.8-7.8c-4.3,0-7.8,3.5-7.8,7.8
			c0-4.3-3.5-7.8-7.8-7.8c-4.3,0-7.8,3.5-7.8,7.8v9.7v5.9v16.1c0,5.1,2,9.8,5.3,13.2l41.7-29.4v-5.9L237.3,148.1L237.3,148.1z"/>
	</g>
	<path class="st91" d="M195.8,192.3c2.2,11.6-6.3,22.7-18.1,23.1c-0.2,0-0.4,0-0.7,0c-0.2,0-0.4,0-0.7,0
		c-11.8-0.4-20.3-11.5-18.1-23.1l5.3-27.3c0.2-0.8,0.2-1.7,0.3-2.5c0.6-6.8,6.2-12.1,13.2-12.1c6.9,0,12.6,5.3,13.2,12.1
		c0.1,0.8,0.2,1.7,0.3,2.5L195.8,192.3z"/>
	<g>
		<path class="st90" d="M195.8,192.3l-5.3-27.3c-0.2-0.8-0.2-1.7-0.3-2.5c-0.6-6.8-6.2-12.1-13.2-12.1l0,0v65l0,0c0.2,0,0.4,0,0.7,0
			C189.5,215,198,203.9,195.8,192.3z"/>
		<path class="st90" d="M163.8,148.1c0-4.3-3.5-7.8-7.8-7.8c-4.3,0-7.8,3.5-7.8,7.8c0-4.3-3.5-7.8-7.8-7.8c-4.3,0-7.8,3.5-7.8,7.8
			c0-4.3-3.5-7.8-7.8-7.8s-7.8,3.5-7.8,7.8v9.7v5.9v16.1c0,5.1,2,9.8,5.3,13.2l41.7-29.4v-5.9L163.8,148.1L163.8,148.1z"/>
	</g>
</g>
<g id="faceaccessory_x5F_1">
	<polygon class="st92" points="210,219.1 189.1,242.8 216.6,270.3 238.9,248 	"/>
	<polygon class="st93" points="199.5,231 189.1,242.8 216.6,270.3 227.8,259.2 	"/>
	<polygon class="st92" points="142.3,219.1 163.2,242.8 135.7,270.3 113.4,248 	"/>
	<polygon class="st93" points="152.7,230.9 142.3,219.1 113.4,248 124.5,259.1 	"/>
	<path class="st94" d="M133.5,157.3c7-16.6,23.4-28.3,42.6-28.3s35.6,11.7,42.6,28.3l3.6,46.2v8c0,25.5-20.7,46.2-46.2,46.2
		s-46.2-20.7-46.2-46.2v-8L133.5,157.3z"/>
	<path class="st95" d="M176.1,129c-19.1,0-35.6,11.7-42.6,28.3l-3.6,46.2v8c0,25.5,20.7,46.2,46.2,46.2L176.1,129L176.1,129z"/>
	<path class="st96" d="M210,155.8h-67.7c-14,0-25.4,11.4-25.4,25.4s11.4,25.4,25.4,25.4c12.2,0,22.3-8.5,24.8-20h18.1
		c2.5,11.4,12.7,20,24.8,20c14,0,25.4-11.4,25.4-25.4S224,155.8,210,155.8z"/>
	<path class="st92" d="M176.1,205.9c-15.5,0-28.2,12.6-28.2,28.2s12.6,28.2,28.2,28.2s28.2-12.6,28.2-28.2S191.6,205.9,176.1,205.9z
		 M195,234.1c0,1.8-0.3,3.5-0.7,5.1l-8.9-5.1l8.9-5.1C194.7,230.6,195,232.3,195,234.1z M157.2,234.1c0-1.8,0.3-3.5,0.7-5.1l8.9,5.1
		l-8.9,5.1C157.5,237.6,157.2,235.9,157.2,234.1z M189.6,220.9l-8.9,5.1v-10.3C184.2,216.7,187.2,218.5,189.6,220.9z M171.4,215.8
		V226l-8.9-5.1C165,218.5,168,216.7,171.4,215.8z M162.6,247.2l8.9-5.1v10.3C168,251.5,165,249.7,162.6,247.2z M180.7,252.4v-10.3
		l8.9,5.1C187.2,249.7,184.2,251.5,180.7,252.4z"/>
	<path class="st97" d="M221.7,158.7L187.4,193c1.5,2.8,3.4,5.3,5.8,7.4l35.9-35.9C227,162.1,224.5,160.1,221.7,158.7z"/>
	
		<rect x="115" y="238" transform="matrix(0.7071 -0.7071 0.7071 0.7071 -146.8244 163.8868)" class="st98" width="18.8" height="42.4"/>
	
		<rect id="SVGCleanerId_0" x="107.5" y="241.1" transform="matrix(0.7071 -0.7071 0.7071 0.7071 -143.7241 156.3994)" class="st99" width="18.8" height="21.2"/>
	<g>
		
			<rect id="SVGCleanerId_0_1_" x="107.5" y="241.1" transform="matrix(0.7071 -0.7071 0.7071 0.7071 -143.7241 156.3994)" class="st99" width="18.8" height="21.2"/>
	</g>
	
		<rect x="206.6" y="249.8" transform="matrix(0.7071 -0.7071 0.7071 0.7071 -116.558 236.9565)" class="st98" width="42.4" height="18.8"/>
	
		<rect x="209.7" y="257.3" transform="matrix(0.7071 -0.7071 0.7071 0.7071 -124.0477 233.8541)" class="st99" width="21.2" height="18.8"/>
	<path class="st100" d="M176.1,155.8h-33.9c-14,0-25.4,11.4-25.4,25.4s11.4,25.4,25.4,25.4c12.2,0,22.3-8.5,24.8-20h9V155.8z"/>
	<path class="st97" d="M168.6,155.8l-43.9,43.9c2.3,2.2,5,3.9,8,5.1l49-49H168.6z"/>
</g>
<g id="headaccessory_x5F_4">
	<path id="XMLID_1436_" class="st101" d="M206.4,97.3c0,0-7.3,1.3-12.3,8.5s-3.7,14.5-3.7,14.5c10,7,25.2,0.6,25.2,0.6
		S216.4,104.4,206.4,97.3z"/>
	<path id="XMLID_1437_" class="st102" d="M240.8,121.4c-10-7-25.2-0.6-25.2-0.6s-0.9,16.5,9.2,23.5c0,0,7.3-1.3,12.3-8.5
		C242.1,128.7,240.8,121.4,240.8,121.4z"/>
	<circle id="XMLID_1438_" class="st103" cx="215.6" cy="120.8" r="7"/>
</g>
<g id="headaccessory_x5F_3">
	<ellipse id="XMLID_1666_" class="st104" cx="236.8" cy="98" rx="29.8" ry="26.1"/>
	<ellipse id="XMLID_1667_" class="st102" cx="236.8" cy="98" rx="11.9" ry="10.4"/>
	<ellipse id="XMLID_1668_" class="st105" cx="117.6" cy="98" rx="29.8" ry="26.1"/>
	<ellipse id="XMLID_1669_" class="st101" cx="117.6" cy="98" rx="11.9" ry="10.4"/>
	<path id="XMLID_1670_" class="st104" d="M177.2,87.6c-25.6-0.9-52.2,9.6-51.6,16.5c0.8,9.3,48.6,0.4,79.5,24.6
		c41.8,32.7,19.6,99.8,28.2,100.7c8.5,0.9,45.4-64.5,10.8-108.9C230.2,102.5,204.9,88.5,177.2,87.6z"/>
	<path id="XMLID_1671_" class="st105" d="M93.8,176.2c0,33,16.7,63.7,24.4,62.7c11.5-1.5-11.3-71.7,29.8-108.5
		c22.7-20.3,57-23.5,82.7-22.9c-5.9-4.8-20.1-14.9-41.8-18.7c-5.9-1-30.1-4.9-52.8,5.6C93.4,114.2,93.8,167.6,93.8,176.2z"/>
	<ellipse id="XMLID_1674_" class="st102" cx="233.8" cy="236.1" rx="14.9" ry="13"/>
	<path id="XMLID_1675_" class="st101" d="M233.8,223.1c-8.2,0-14.9,5.8-14.9,13s6.7,13,14.9,13"/>
	<ellipse id="XMLID_1676_" class="st102" cx="120.6" cy="236.1" rx="14.9" ry="13"/>
	<path id="XMLID_1677_" class="st101" d="M120.6,223.1c-8.2,0-14.9,5.8-14.9,13s6.7,13,14.9,13"/>
</g>
<g id="headaccessory_x5F_2">
	<path class="st106" d="M157.4,65.1c-6.8,0-13.1,5.5-14,12.2l-4.5,33.4l41,3.1l-3.1-48.7L157.4,65.1L157.4,65.1z"/>
	<g>
		<path class="st107" d="M210.2,77.3c-0.9-6.7-7.2-12.2-14-12.2h-19.4v48.7l37.9-3.1L210.2,77.3z"/>
		<path class="st107" d="M118.3,110.7c0,5.6,5.6,11.6,15.4,16.2c11.4,5.4,26.7,8.4,43.1,8.4l3.1-12.3l-3.1-12.3L118.3,110.7
			L118.3,110.7z"/>
	</g>
	<path class="st108" d="M142.9,117.4c-6.6-2.5-10.1-5.2-11.6-6.7h-19.2c0,17,29,30.8,64.7,30.8l3.1-9.2l-3.1-9.2
		C164.3,123,152.3,121,142.9,117.4z"/>
	<path class="st107" d="M136.4,121.4c-8.2-3.9-11.9-8.3-11.9-10.7h-6.2c0,5.6,5.6,11.6,15.4,16.2c11.4,5.4,26.7,8.4,43.1,8.4
		l3.1-3.1l-3.1-3.1C161.6,129.2,146.8,126.3,136.4,121.4z"/>
	<path class="st108" d="M176.8,110.7v24.7c16.4,0,31.7-3,43.1-8.4l2.4-16.2H176.8z"/>
	<path class="st109" d="M222.4,110.7c-1.5,1.6-5,4.2-11.6,6.7c-9.4,3.6-21.4,5.6-33.9,5.6v18.5c35.7,0,64.7-13.8,64.7-30.8
		L222.4,110.7L222.4,110.7z"/>
	<path class="st108" d="M229.2,110.7c0,2.4-3.7,6.8-11.9,10.7c-10.4,5-25.2,7.8-40.5,7.8v6.2c16.4,0,31.7-3,43.1-8.4
		c9.8-4.7,15.4-10.6,15.4-16.2L229.2,110.7L229.2,110.7z"/>
</g>
<g id="headaccessory_x5F_1">
	<path id="XMLID_1140_" class="st105" d="M176.2,70.7c2.3,0,4.1,1.9,4.1,4.1s-1.9,4.1-4.1,4.1v36H205l-21.7-54.3l-7.1-3.7V70.7z
		 M185.9,92.9c2.3,0,4.1,1.9,4.1,4.1c0,2.3-1.9,4.1-4.1,4.1c-2.3,0-4.1-1.9-4.1-4.1C181.7,94.7,183.6,92.9,185.9,92.9z"/>
	<path id="XMLID_1143_" class="st104" d="M176.2,79c-2.3,0-4.1-1.9-4.1-4.1s1.9-4.1,4.1-4.1V57l-7.1,3.7L147.4,115h28.8V79z
		 M163.8,109.5c-2.3,0-4.1-1.9-4.1-4.1c0-2.3,1.9-4.1,4.1-4.1s4.1,1.9,4.1,4.1C167.9,107.6,166.1,109.5,163.8,109.5z"/>
	<polygon id="XMLID_1146_" class="st102" points="176.2,43.1 176.2,26.5 170.2,38.6 156.8,40.5 166.5,50 164.2,63.3 169.1,60.7 
		176.2,57 	"/>
	<polygon id="XMLID_1147_" class="st110" points="176.2,57 183.3,60.7 188.2,63.3 185.9,50 195.6,40.5 182.2,38.6 176.2,26.5 
		176.2,43.1 	"/>
	<polygon id="XMLID_1148_" class="st102" points="147.4,115 143,115 143,126 176.2,126 176.2,115 	"/>
	<polygon id="XMLID_1149_" class="st110" points="205,115 176.2,115 176.2,126 209.4,126 209.4,115 	"/>
	<circle id="XMLID_1150_" class="st84" cx="163.8" cy="105.3" r="4.1"/>
	<circle id="XMLID_1151_" class="st84" cx="185.9" cy="97" r="4.1"/>
	<circle id="XMLID_1152_" class="st84" cx="176.2" cy="74.9" r="4.1"/>
</g>
</svg>
